<svg xmlns="http://www.w3.org/2000/svg" xmlns:xlink="http://www.w3.org/1999/xlink" version="1.1" width="108" height="108" viewBox="0 0 108 108" xml:space="preserve">
<desc>Created with Fabric.js 3.5.0</desc>
<defs>
</defs>
<rect x="0" y="0" width="100%" height="100%" fill="#ffffff"/>
<g transform="matrix(0.0475 0 0 0.0475 54.0052 54.0052)" id="164031">
<g style="" vector-effect="non-scaling-stroke">
		<g transform="matrix(1 0 0 1 -560 0)" id="Layer_x0020_1">
<rect style="stroke: none; stroke-width: 1; stroke-dasharray: none; stroke-linecap: butt; stroke-dashoffset: 0; stroke-linejoin: miter; stroke-miterlimit: 4; is-custom-font: none; font-file-url: none; fill: rgb(62,39,35); fill-rule: evenodd; opacity: 1;" x="-208" y="-704" rx="27" ry="27" width="416" height="1408"/>
</g>
		<g transform="matrix(1 0 0 1 -560 -432.5)" id="Layer_x0020_1">
<rect style="stroke: none; stroke-width: 1; stroke-dasharray: none; stroke-linecap: butt; stroke-dashoffset: 0; stroke-linejoin: miter; stroke-miterlimit: 4; is-custom-font: none; font-file-url: none; fill: rgb(255,171,64); fill-rule: evenodd; opacity: 1;" x="-208" y="-26.5" rx="0" ry="0" width="416" height="53"/>
</g>
		<g transform="matrix(1 0 0 1 -560 406.5)" id="Layer_x0020_1">
<rect style="stroke: none; stroke-width: 1; stroke-dasharray: none; stroke-linecap: butt; stroke-dashoffset: 0; stroke-linejoin: miter; stroke-miterlimit: 4; is-custom-font: none; font-file-url: none; fill: rgb(255,171,64); fill-rule: evenodd; opacity: 1;" x="-208" y="-26.5" rx="0" ry="0" width="416" height="53"/>
</g>
		<g transform="matrix(1 0 0 1 -560 300.5)" id="Layer_x0020_1">
<rect style="stroke: none; stroke-width: 1; stroke-dasharray: none; stroke-linecap: butt; stroke-dashoffset: 0; stroke-linejoin: miter; stroke-miterlimit: 4; is-custom-font: none; font-file-url: none; fill: rgb(255,171,64); fill-rule: evenodd; opacity: 1;" x="-208" y="-26.5" rx="0" ry="0" width="416" height="53"/>
</g>
		<g transform="matrix(1 0 0 1 -560 -132)" id="Layer_x0020_1">
<circle style="stroke: none; stroke-width: 1; stroke-dasharray: none; stroke-linecap: butt; stroke-dashoffset: 0; stroke-linejoin: miter; stroke-miterlimit: 4; is-custom-font: none; font-file-url: none; fill: rgb(255,145,0); fill-rule: evenodd; opacity: 1;" cx="0" cy="0" r="103"/>
</g>
		<g transform="matrix(1 0 0 1 -559.5 7)" id="Layer_x0020_1">
<rect style="stroke: none; stroke-width: 1; stroke-dasharray: none; stroke-linecap: butt; stroke-dashoffset: 0; stroke-linejoin: miter; stroke-miterlimit: 4; is-custom-font: none; font-file-url: none; fill: rgb(255,145,0); fill-rule: evenodd; opacity: 1;" x="-111.5" y="-7" rx="0" ry="0" width="223" height="14"/>
</g>
		<g transform="matrix(1 0 0 1 -664 0)" id="Layer_x0020_1">
<path style="stroke: none; stroke-width: 1; stroke-dasharray: none; stroke-linecap: butt; stroke-dashoffset: 0; stroke-linejoin: miter; stroke-miterlimit: 4; is-custom-font: none; font-file-url: none; fill: rgb(56,38,44); fill-rule: evenodd; opacity: 1;" transform=" translate(-360, -1024)" d="M 283 320 l 181 0 l 0 1408 l -181 0 c -15 0 -27 -12 -27 -27 l 0 -1353 c 0 -15 12 -27 27 -27 z" stroke-linecap="round"/>
</g>
		<g transform="matrix(1 0 0 1 -664 -432.5)" id="Layer_x0020_1">
<polygon style="stroke: none; stroke-width: 1; stroke-dasharray: none; stroke-linecap: butt; stroke-dashoffset: 0; stroke-linejoin: miter; stroke-miterlimit: 4; is-custom-font: none; font-file-url: none; fill: rgb(212,145,68); fill-rule: evenodd; opacity: 1;" points="-104,-26.5 104,-26.5 104,26.5 -104,26.5 "/>
</g>
		<g transform="matrix(1 0 0 1 -664 406.5)" id="Layer_x0020_1">
<polygon style="stroke: none; stroke-width: 1; stroke-dasharray: none; stroke-linecap: butt; stroke-dashoffset: 0; stroke-linejoin: miter; stroke-miterlimit: 4; is-custom-font: none; font-file-url: none; fill: rgb(212,145,68); fill-rule: evenodd; opacity: 1;" points="-104,-26.5 104,-26.5 104,26.5 -104,26.5 "/>
</g>
		<g transform="matrix(1 0 0 1 -664 300.5)" id="Layer_x0020_1">
<polygon style="stroke: none; stroke-width: 1; stroke-dasharray: none; stroke-linecap: butt; stroke-dashoffset: 0; stroke-linejoin: miter; stroke-miterlimit: 4; is-custom-font: none; font-file-url: none; fill: rgb(212,145,68); fill-rule: evenodd; opacity: 1;" points="-104,-26.5 104,-26.5 104,26.5 -104,26.5 "/>
</g>
		<g transform="matrix(1 0 0 1 -611.5 -133)" id="Layer_x0020_1">
<path style="stroke: none; stroke-width: 1; stroke-dasharray: none; stroke-linecap: butt; stroke-dashoffset: 0; stroke-linejoin: miter; stroke-miterlimit: 4; is-custom-font: none; font-file-url: none; fill: rgb(212,124,15); fill-rule: evenodd; opacity: 1;" transform=" translate(-412.5, -891)" d="M 464 789 l 0 0 l 0 205 l 0 0 c -57 0 -103 -46 -103 -103 c 0 -57 46 -103 103 -103 z" stroke-linecap="round"/>
</g>
		<g transform="matrix(1 0 0 1 -615.5 7)" id="Layer_x0020_1">
<polygon style="stroke: none; stroke-width: 1; stroke-dasharray: none; stroke-linecap: butt; stroke-dashoffset: 0; stroke-linejoin: miter; stroke-miterlimit: 4; is-custom-font: none; font-file-url: none; fill: rgb(212,124,15); fill-rule: evenodd; opacity: 1;" points="-55.5,-7 55.5,-7 55.5,7 -55.5,7 "/>
</g>
		<g transform="matrix(1 0 0 1 -85 0)" id="_220504008">
<rect style="stroke: none; stroke-width: 1; stroke-dasharray: none; stroke-linecap: butt; stroke-dashoffset: 0; stroke-linejoin: miter; stroke-miterlimit: 4; is-custom-font: none; font-file-url: none; fill: rgb(51,105,30); fill-rule: evenodd; opacity: 1;" x="-208" y="-704" rx="27" ry="27" width="416" height="1408"/>
</g>
		<g transform="matrix(1 0 0 1 -85 -432.5)" id="_220504008">
<rect style="stroke: none; stroke-width: 1; stroke-dasharray: none; stroke-linecap: butt; stroke-dashoffset: 0; stroke-linejoin: miter; stroke-miterlimit: 4; is-custom-font: none; font-file-url: none; fill: rgb(156,204,101); fill-rule: evenodd; opacity: 1;" x="-208" y="-26.5" rx="0" ry="0" width="416" height="53"/>
</g>
		<g transform="matrix(1 0 0 1 -85 406.5)" id="_220504008">
<rect style="stroke: none; stroke-width: 1; stroke-dasharray: none; stroke-linecap: butt; stroke-dashoffset: 0; stroke-linejoin: miter; stroke-miterlimit: 4; is-custom-font: none; font-file-url: none; fill: rgb(156,204,101); fill-rule: evenodd; opacity: 1;" x="-208" y="-26.5" rx="0" ry="0" width="416" height="53"/>
</g>
		<g transform="matrix(1 0 0 1 -85 300.5)" id="_220504008">
<rect style="stroke: none; stroke-width: 1; stroke-dasharray: none; stroke-linecap: butt; stroke-dashoffset: 0; stroke-linejoin: miter; stroke-miterlimit: 4; is-custom-font: none; font-file-url: none; fill: rgb(156,204,101); fill-rule: evenodd; opacity: 1;" x="-208" y="-26.5" rx="0" ry="0" width="416" height="53"/>
</g>
		<g transform="matrix(1 0 0 1 -85 -132)" id="_220504008">
<circle style="stroke: none; stroke-width: 1; stroke-dasharray: none; stroke-linecap: butt; stroke-dashoffset: 0; stroke-linejoin: miter; stroke-miterlimit: 4; is-custom-font: none; font-file-url: none; fill: rgb(156,204,101); fill-rule: evenodd; opacity: 1;" cx="0" cy="0" r="103"/>
</g>
		<g transform="matrix(1 0 0 1 -84.5 7)" id="_220504008">
<rect style="stroke: none; stroke-width: 1; stroke-dasharray: none; stroke-linecap: butt; stroke-dashoffset: 0; stroke-linejoin: miter; stroke-miterlimit: 4; is-custom-font: none; font-file-url: none; fill: rgb(156,204,101); fill-rule: evenodd; opacity: 1;" x="-111.5" y="-7" rx="0" ry="0" width="223" height="14"/>
</g>
		<g transform="matrix(1 0 0 1 -188 0)" id="_220502880">
<path style="stroke: none; stroke-width: 1; stroke-dasharray: none; stroke-linecap: butt; stroke-dashoffset: 0; stroke-linejoin: miter; stroke-miterlimit: 4; is-custom-font: none; font-file-url: none; fill: rgb(41,100,36); fill-rule: evenodd; opacity: 1;" transform=" translate(-836, -1024)" d="M 759 320 l 181 0 l 0 1408 l -181 0 c -15 0 -27 -12 -27 -27 l 0 -1353 c 0 -15 12 -27 27 -27 z" stroke-linecap="round"/>
</g>
		<g transform="matrix(1 0 0 1 -189 -432.5)" id="_220502880">
<polygon style="stroke: none; stroke-width: 1; stroke-dasharray: none; stroke-linecap: butt; stroke-dashoffset: 0; stroke-linejoin: miter; stroke-miterlimit: 4; is-custom-font: none; font-file-url: none; fill: rgb(126,180,94); fill-rule: evenodd; opacity: 1;" points="-104,-26.5 104,-26.5 104,26.5 -104,26.5 "/>
</g>
		<g transform="matrix(1 0 0 1 -189 406.5)" id="_220502880">
<polygon style="stroke: none; stroke-width: 1; stroke-dasharray: none; stroke-linecap: butt; stroke-dashoffset: 0; stroke-linejoin: miter; stroke-miterlimit: 4; is-custom-font: none; font-file-url: none; fill: rgb(126,180,94); fill-rule: evenodd; opacity: 1;" points="-104,-26.5 104,-26.5 104,26.5 -104,26.5 "/>
</g>
		<g transform="matrix(1 0 0 1 -189 300.5)" id="_220502880">
<polygon style="stroke: none; stroke-width: 1; stroke-dasharray: none; stroke-linecap: butt; stroke-dashoffset: 0; stroke-linejoin: miter; stroke-miterlimit: 4; is-custom-font: none; font-file-url: none; fill: rgb(126,180,94); fill-rule: evenodd; opacity: 1;" points="-104,-26.5 104,-26.5 104,26.5 -104,26.5 "/>
</g>
		<g transform="matrix(1 0 0 1 -136.5 -133)" id="_220502880">
<path style="stroke: none; stroke-width: 1; stroke-dasharray: none; stroke-linecap: butt; stroke-dashoffset: 0; stroke-linejoin: miter; stroke-miterlimit: 4; is-custom-font: none; font-file-url: none; fill: rgb(126,180,94); fill-rule: evenodd; opacity: 1;" transform=" translate(-887.5, -891)" d="M 939 789 l 0 0 l 0 205 l 0 0 c -57 0 -103 -46 -103 -103 c 0 -57 46 -103 103 -103 z" stroke-linecap="round"/>
</g>
		<g transform="matrix(1 0 0 1 -140.5 7)" id="_220502880">
<polygon style="stroke: none; stroke-width: 1; stroke-dasharray: none; stroke-linecap: butt; stroke-dashoffset: 0; stroke-linejoin: miter; stroke-miterlimit: 4; is-custom-font: none; font-file-url: none; fill: rgb(126,180,94); fill-rule: evenodd; opacity: 1;" points="-55.5,-7 55.5,-7 55.5,7 -55.5,7 "/>
</g>
		<g transform="matrix(0.9092 -0.1167 0.1167 0.9092 475.4121 0.0177)" id="_220502088">
<rect style="stroke: none; stroke-width: 1; stroke-dasharray: none; stroke-linecap: butt; stroke-dashoffset: 0; stroke-linejoin: miter; stroke-miterlimit: 4; is-custom-font: none; font-file-url: none; fill: rgb(230,81,0); fill-rule: evenodd; opacity: 1;" x="-227" y="-768" rx="27" ry="27" width="454" height="1536"/>
</g>
		<g transform="matrix(0.9092 -0.1167 0.1167 0.9092 420.3021 -429.2956)" id="_220502088">
<rect style="stroke: none; stroke-width: 1; stroke-dasharray: none; stroke-linecap: butt; stroke-dashoffset: 0; stroke-linejoin: miter; stroke-miterlimit: 4; is-custom-font: none; font-file-url: none; fill: rgb(245,127,23); fill-rule: evenodd; opacity: 1;" x="-227" y="-29" rx="0" ry="0" width="454" height="58"/>
</g>
		<g transform="matrix(0.9092 -0.1167 0.1167 0.9092 527.2021 403.5444)" id="_220502088">
<rect style="stroke: none; stroke-width: 1; stroke-dasharray: none; stroke-linecap: butt; stroke-dashoffset: 0; stroke-linejoin: miter; stroke-miterlimit: 4; is-custom-font: none; font-file-url: none; fill: rgb(245,127,23); fill-rule: evenodd; opacity: 1;" x="-227" y="-29" rx="0" ry="0" width="454" height="58"/>
</g>
		<g transform="matrix(0.9092 -0.1167 0.1167 0.9092 513.7121 298.4144)" id="_220502088">
<rect style="stroke: none; stroke-width: 1; stroke-dasharray: none; stroke-linecap: butt; stroke-dashoffset: 0; stroke-linejoin: miter; stroke-miterlimit: 4; is-custom-font: none; font-file-url: none; fill: rgb(245,127,23); fill-rule: evenodd; opacity: 1;" x="-227" y="-29" rx="0" ry="0" width="454" height="58"/>
</g>
		<g transform="matrix(0.9092 -0.1167 0.1167 0.9092 458.5247 -130.9294)" id="_220502088">
<circle style="stroke: none; stroke-width: 1; stroke-dasharray: none; stroke-linecap: butt; stroke-dashoffset: 0; stroke-linejoin: miter; stroke-miterlimit: 4; is-custom-font: none; font-file-url: none; fill: rgb(245,127,23); fill-rule: evenodd; opacity: 1;" cx="0" cy="0" r="112"/>
</g>
		<g transform="matrix(0.9092 -0.1167 0.1167 0.9092 476.318 6.7989)" id="_220502088">
<rect style="stroke: none; stroke-width: 1; stroke-dasharray: none; stroke-linecap: butt; stroke-dashoffset: 0; stroke-linejoin: miter; stroke-miterlimit: 4; is-custom-font: none; font-file-url: none; fill: rgb(245,127,23); fill-rule: evenodd; opacity: 1;" x="-121.5" y="-7.5" rx="0" ry="0" width="243" height="15"/>
</g>
		<g transform="matrix(1 0 0 1 374.8825 12.1175)" id="_220500816">
<path style="stroke: none; stroke-width: 1; stroke-dasharray: none; stroke-linecap: butt; stroke-dashoffset: 0; stroke-linejoin: miter; stroke-miterlimit: 4; is-custom-font: none; font-file-url: none; fill: rgb(227,66,0); fill-rule: evenodd; opacity: 1;" transform=" translate(-1398.8825, -1036.1175)" d="M 1231 349 l 180 -23 l 179 1397 l -179 23 c -15 2 -29 -9 -31 -24 l -172 -1342 c -2 -15 9 -29 24 -31 z" stroke-linecap="round"/>
</g>
		<g transform="matrix(1 0 0 1 317.5 -416.5)" id="_220500816">
<polygon style="stroke: none; stroke-width: 1; stroke-dasharray: none; stroke-linecap: butt; stroke-dashoffset: 0; stroke-linejoin: miter; stroke-miterlimit: 4; is-custom-font: none; font-file-url: none; fill: rgb(239,103,19); fill-rule: evenodd; opacity: 1;" points="-106.5,-12.5 100.5,-39.5 106.5,13.5 -100.5,39.5 "/>
</g>
		<g transform="matrix(1 0 0 1 424 416.5)" id="_220500816">
<polygon style="stroke: none; stroke-width: 1; stroke-dasharray: none; stroke-linecap: butt; stroke-dashoffset: 0; stroke-linejoin: miter; stroke-miterlimit: 4; is-custom-font: none; font-file-url: none; fill: rgb(239,103,19); fill-rule: evenodd; opacity: 1;" points="-107,-12.5 100,-39.5 107,13.5 -100,39.5 "/>
</g>
		<g transform="matrix(1 0 0 1 410.5 311.5)" id="_220500816">
<polygon style="stroke: none; stroke-width: 1; stroke-dasharray: none; stroke-linecap: butt; stroke-dashoffset: 0; stroke-linejoin: miter; stroke-miterlimit: 4; is-custom-font: none; font-file-url: none; fill: rgb(239,103,19); fill-rule: evenodd; opacity: 1;" points="-106.5,-12.5 100.5,-39.5 106.5,13.5 -99.5,39.5 "/>
</g>
		<g transform="matrix(1 0 0 1 413.6024 -130.6024)" id="_220500816">
<path style="stroke: none; stroke-width: 1; stroke-dasharray: none; stroke-linecap: butt; stroke-dashoffset: 0; stroke-linejoin: miter; stroke-miterlimit: 4; is-custom-font: none; font-file-url: none; fill: rgb(239,103,19); fill-rule: evenodd; opacity: 1;" transform=" translate(-1437.6024, -893.3976)" d="M 1469 791 l 1 0 l 26 204 l -1 0 c -56 7 -108 -33 -115 -89 c -7 -56 33 -108 89 -115 z" stroke-linecap="round"/>
</g>
		<g transform="matrix(1 0 0 1 421.5 14)" id="_220500816">
<polygon style="stroke: none; stroke-width: 1; stroke-dasharray: none; stroke-linecap: butt; stroke-dashoffset: 0; stroke-linejoin: miter; stroke-miterlimit: 4; is-custom-font: none; font-file-url: none; fill: rgb(239,103,19); fill-rule: evenodd; opacity: 1;" points="-56.5,0 54.5,-14 56.5,-1 -54.5,14 "/>
</g>
		<g transform="matrix(1 0 0 1 0 0)" id="Layer_x0020_1">
<rect style="stroke: none; stroke-width: 1; stroke-dasharray: none; stroke-linecap: butt; stroke-dashoffset: 0; stroke-linejoin: miter; stroke-miterlimit: 4; is-custom-font: none; font-file-url: none; fill: none; fill-rule: evenodd; opacity: 1;" x="-1024" y="-1024" rx="0" ry="0" width="2048" height="2048"/>
</g>
</g>
</g>
</svg>